<svg id="Capa_1" data-name="Capa 1" xmlns="http://www.w3.org/2000/svg" viewBox="0 0 368.01 368.01">
  <defs>
    <style>
      .cls-1 {
        fill: #2d2d2d;
      }
    </style>
  </defs>
  <title>Copy Icon</title>
  <path class="cls-1" d="M352,96.35a7.22,7.22,0,0,0-.55-2.72,7.37,7.37,0,0,0-.57-.92,7.49,7.49,0,0,0-.76-1.24l-65.74-73A7.31,7.31,0,0,0,279,16H154.78a22,22,0,0,0-21.92,21.92V74.44h-95A21.94,21.94,0,0,0,16,96.35V330.09A21.94,21.94,0,0,0,37.91,352H213.22a21.94,21.94,0,0,0,21.91-21.91V293.57h95A21.94,21.94,0,0,0,352,271.66V111s0,0,0,0ZM220.52,330.09a7.32,7.32,0,0,1-7.3,7.31H37.91a7.32,7.32,0,0,1-7.3-7.31V96.35a7.32,7.32,0,0,1,7.3-7.3h95V169.4a7.3,7.3,0,0,0,7.3,7.3h80.35Zm0-168h-73v-73h4.28l68.76,68.77ZM337.39,271.66a7.31,7.31,0,0,1-7.3,7.3h-95V169.72c0-.11,0-.22,0-.32V154.76a7.27,7.27,0,0,0-2-5s0,0,0,0h0a0,0,0,0,1,0,0l-.1-.1L160,76.59a7.28,7.28,0,0,0-5.17-2.15h-7.31V37.92a7.32,7.32,0,0,1,7.31-7.31H257V111a7.3,7.3,0,0,0,7.3,7.3h73.05Zm0-168H271.65v-73h4.05l61.69,68.55Z"/>
</svg>
