<svg id="Layer_1" data-name="Layer 1" xmlns="http://www.w3.org/2000/svg" viewBox="0 0 300 300">
  <title>Folder</title>
  <path fill="#A1A1A1" d="M270.34,97.26a21,21,0,0,0-16.51-7.8h-9.59c-1.89-8.57-10.38-17.14-20.56-17.14H120.41a12.86,12.86,0,0,1-12.85-12.85A21.45,21.45,0,0,0,86.14,38.05H51.87A21.44,21.44,0,0,0,30.45,59.47V230.83a21.44,21.44,0,0,0,21.42,21.42h1.44a21.49,21.49,0,0,0,2.78,0H227a21,21,0,0,0,20.65-16.48L274.49,115A20.79,20.79,0,0,0,270.34,97.26ZM39,59.47A12.87,12.87,0,0,1,51.87,46.62H86.14A12.87,12.87,0,0,1,99,59.47a21.45,21.45,0,0,0,21.42,21.42H223.67c5.43,0,10,4.28,11.72,8.57h-153a21,21,0,0,0-20.66,16.48L39,208.07ZM265.75,113,238.9,234A12.24,12.24,0,0,1,227,243.68H56.09a12.79,12.79,0,0,1-12.36-15.55L70.46,107.71A12.25,12.25,0,0,1,82.38,98H253.83a12.34,12.34,0,0,1,11.92,15Z"/>
</svg>
