<svg id="Layer_1" data-name="Layer 1" xmlns="http://www.w3.org/2000/svg" viewBox="0 0 300 300">
  <title>Settings</title>
  <g>
    <path d="M261.85,126.62l-19.35-3.25-.53-1.72a93.5,93.5,0,0,0-6.87-16.57l-.83-1.6,11.42-16a12.48,12.48,0,0,0-1.36-16.1L228.71,55.78a12.72,12.72,0,0,0-16-1.36l-16,11.43L195,65a93.25,93.25,0,0,0-17.17-7l-1.77-.53-3.2-19.17a12.46,12.46,0,0,0-12.37-10.48h-22a12.52,12.52,0,0,0-12.37,10.48l-3.31,19.59-1.72.53a93.5,93.5,0,0,0-16.51,6.92l-1.6.89L87.15,54.78a12.72,12.72,0,0,0-16.1,1.3L55.37,71.7A12.5,12.5,0,0,0,54,87.8L65.55,104l-.83,1.59A88.93,88.93,0,0,0,58,122.19L57.44,124l-19.17,3.2a12.51,12.51,0,0,0-10.48,12.36v22a12.53,12.53,0,0,0,10.48,12.37l19.53,3.31.59,1.72a93.48,93.48,0,0,0,6.92,16.51l.89,1.6L54.78,212.91A12.5,12.5,0,0,0,56.14,229l15.62,15.56a12.65,12.65,0,0,0,16,1.36L104,234.45l1.6.83a97.49,97.49,0,0,0,16,6.57l1.72.53,3.25,19.41a12.42,12.42,0,0,0,12.31,10.42H161a12.48,12.48,0,0,0,12.37-10.48l3.25-19.35,1.78-.53A94.8,94.8,0,0,0,194.92,235l1.6-.83,16,11.43a12.81,12.81,0,0,0,16.16-1.37l15.56-15.56a12.58,12.58,0,0,0,1.37-16.16l-11.43-16,.83-1.66a91.76,91.76,0,0,0,6.87-16.51l.53-1.78,19.41-3.19A12.48,12.48,0,0,0,272.21,161V139A12.37,12.37,0,0,0,261.85,126.62ZM264.16,164H263a4.07,4.07,0,0,1-2.48,1.3l-22,3.67a4.06,4.06,0,0,0-3.25,3,85.13,85.13,0,0,1-9.47,22.66,4.14,4.14,0,0,0,.24,4.5L239,217.29a4.42,4.42,0,0,1-.53,5.62l-15.57,15.56a4.65,4.65,0,0,1-5.62.42l-18.11-12.84a4,4,0,0,0-4.44-.18A87,87,0,0,1,172,235.28a3.9,3.9,0,0,0-3,3.19l-3.73,22A4.24,4.24,0,0,1,161,264.1H139a4.28,4.28,0,0,1-4.26-3.67l-3.67-21.9a4,4,0,0,0-3-3.25,88.78,88.78,0,0,1-22.19-9.12,4.42,4.42,0,0,0-4.44.18L83.13,239.42a4.17,4.17,0,0,1-5.57-.47L62,223.32a4.28,4.28,0,0,1-.59-5.44l13-18.17a4.16,4.16,0,0,0,.18-4.5A85.47,85.47,0,0,1,65,172.61a4.15,4.15,0,0,0-3.32-3L39.63,165.8A4.27,4.27,0,0,1,36,161.54v-22a4.24,4.24,0,0,1,3.67-4.26l21.72-3.67a4,4,0,0,0,3.31-3A88.81,88.81,0,0,1,74,105.79a4,4,0,0,0-.23-4.38l-13-18.34a4.39,4.39,0,0,1,.47-5.57L76.85,61.94a4.75,4.75,0,0,1,5.62-.47l18,12.84a4.13,4.13,0,0,0,4.49.18A87.56,87.56,0,0,1,127.57,65a4.25,4.25,0,0,0,3-3.26l3.79-22.13A4.23,4.23,0,0,1,138.64,36h22a4.27,4.27,0,0,1,4.26,3.67l3.67,21.78a4.23,4.23,0,0,0,3,3.31,87.5,87.5,0,0,1,23.26,9.53A3.92,3.92,0,0,0,199.3,74l18-12.9c2.48-1.54,4.2-1,5.56.47l15.62,15.57a4.37,4.37,0,0,1,.54,5.44l-13,18.29a4,4,0,0,0-.18,4.44A88,88,0,0,1,235.34,128a3.9,3.9,0,0,0,3.19,3l22,3.73a4.28,4.28,0,0,1,3.61,4.26Z"/>
    <path d="M150.06,98.93a51,51,0,1,0,51,51.07A51.12,51.12,0,0,0,150.06,98.93Zm0,93.92A42.85,42.85,0,1,1,192.91,150,42.93,42.93,0,0,1,150.06,192.85Z"/>
  </g>
</svg>
